<svg data-v-423bf9ae="" xmlns="http://www.w3.org/2000/svg" viewBox="0 0 280.6547731116066 60" class="font"><!----><!----><!----><g data-v-423bf9ae="" id="7fed650b-028a-477c-9194-c040bdaad6bf" fill="white" transform="matrix(5.952380997433594,0,0,5.952380997433594,-6.488097212166878,-18.75000118641627)"><path d="M1.43 13.09L1.43 13.09Q1.29 13.09 1.19 12.99L1.19 12.99L1.19 12.99Q1.09 12.89 1.09 12.75L1.09 12.75L1.09 3.64L1.09 3.64Q1.09 3.49 1.18 3.39L1.18 3.39L1.18 3.39Q1.27 3.29 1.43 3.29L1.43 3.29L7.52 3.29L7.52 3.29Q7.67 3.29 7.77 3.39L7.77 3.39L7.77 3.39Q7.87 3.49 7.87 3.64L7.87 3.64L7.87 4.65L7.87 4.65Q7.87 4.79 7.77 4.89L7.77 4.89L7.77 4.89Q7.67 4.98 7.52 4.98L7.52 4.98L3.04 4.98L3.04 7.62L7.24 7.62L7.24 7.62Q7.39 7.62 7.49 7.71L7.49 7.71L7.49 7.71Q7.59 7.81 7.59 7.95L7.59 7.95L7.59 8.96L7.59 8.96Q7.59 9.10 7.49 9.20L7.49 9.20L7.49 9.20Q7.39 9.30 7.24 9.30L7.24 9.30L3.04 9.30L3.04 12.75L3.04 12.75Q3.04 12.89 2.94 12.99L2.94 12.99L2.94 12.99Q2.84 13.09 2.69 13.09L2.69 13.09L1.43 13.09ZM9.86 13.09L9.86 13.09Q9.72 13.09 9.62 12.99L9.62 12.99L9.62 12.99Q9.52 12.89 9.52 12.75L9.52 12.75L9.52 3.64L9.52 3.64Q9.52 3.49 9.61 3.39L9.61 3.39L9.61 3.39Q9.70 3.29 9.86 3.29L9.86 3.29L11.14 3.29L11.14 3.29Q11.30 3.29 11.40 3.39L11.40 3.39L11.40 3.39Q11.49 3.49 11.49 3.64L11.49 3.64L11.49 7.24L15.58 7.24L15.58 3.64L15.58 3.64Q15.58 3.49 15.68 3.39L15.68 3.39L15.68 3.39Q15.78 3.29 15.92 3.29L15.92 3.29L17.22 3.29L17.22 3.29Q17.37 3.29 17.47 3.39L17.47 3.39L17.47 3.39Q17.56 3.49 17.56 3.64L17.56 3.64L17.56 12.75L17.56 12.75Q17.56 12.89 17.47 12.99L17.47 12.99L17.47 12.99Q17.37 13.09 17.22 13.09L17.22 13.09L15.92 13.09L15.92 13.09Q15.78 13.09 15.68 12.99L15.68 12.99L15.68 12.99Q15.58 12.89 15.58 12.75L15.58 12.75L15.58 9.02L11.49 9.02L11.49 12.75L11.49 12.75Q11.49 12.89 11.40 12.99L11.40 12.99L11.40 12.99Q11.30 13.09 11.14 13.09L11.14 13.09L9.86 13.09ZM23.52 13.23L23.52 13.23Q21.59 13.23 20.53 12.24L20.53 12.24L20.53 12.24Q19.47 11.26 19.40 9.44L19.40 9.44L19.40 9.44Q19.39 9.06 19.39 8.20L19.39 8.20L19.39 8.20Q19.39 7.34 19.40 6.94L19.40 6.94L19.40 6.94Q19.47 5.15 20.54 4.15L20.54 4.15L20.54 4.15Q21.60 3.15 23.52 3.15L23.52 3.15L23.52 3.15Q24.77 3.15 25.69 3.58L25.69 3.58L25.69 3.58Q26.61 4.00 27.13 4.75L27.13 4.75L27.13 4.75Q27.64 5.49 27.66 6.41L27.66 6.41L27.66 6.44L27.66 6.44Q27.66 6.55 27.57 6.63L27.57 6.63L27.57 6.63Q27.48 6.71 27.37 6.71L27.37 6.71L26.01 6.71L26.01 6.71Q25.84 6.71 25.76 6.63L25.76 6.63L25.76 6.63Q25.68 6.55 25.62 6.36L25.62 6.36L25.62 6.36Q25.41 5.49 24.89 5.13L24.89 5.13L24.89 5.13Q24.37 4.77 23.52 4.77L23.52 4.77L23.52 4.77Q21.52 4.77 21.43 7.01L21.43 7.01L21.43 7.01Q21.42 7.39 21.42 8.18L21.42 8.18L21.42 8.18Q21.42 8.96 21.43 9.37L21.43 9.37L21.43 9.37Q21.52 11.61 23.52 11.61L23.52 11.61L23.52 11.61Q24.36 11.61 24.89 11.25L24.89 11.25L24.89 11.25Q25.41 10.89 25.62 10.02L25.62 10.02L25.62 10.02Q25.68 9.83 25.76 9.75L25.76 9.75L25.76 9.75Q25.84 9.67 26.01 9.67L26.01 9.67L27.37 9.67L27.37 9.67Q27.50 9.67 27.59 9.76L27.59 9.76L27.59 9.76Q27.68 9.84 27.66 9.97L27.66 9.97L27.66 9.97Q27.64 10.89 27.13 11.63L27.13 11.63L27.13 11.63Q26.61 12.38 25.69 12.80L25.69 12.80L25.69 12.80Q24.77 13.23 23.52 13.23L23.52 13.23ZM33.11 13.23L33.11 13.23Q31.19 13.23 30.13 12.26L30.13 12.26L30.13 12.26Q29.06 11.30 29.01 9.39L29.01 9.39L29.01 9.39Q28.99 8.99 28.99 8.20L28.99 8.20L28.99 8.20Q28.99 7.41 29.01 7L29.01 7L29.01 7Q29.06 5.14 30.16 4.14L30.16 4.14L30.16 4.14Q31.25 3.15 33.11 3.15L33.11 3.15L33.11 3.15Q34.96 3.15 36.06 4.14L36.06 4.14L36.06 4.14Q37.16 5.14 37.21 7L37.21 7L37.21 7Q37.24 7.81 37.24 8.20L37.24 8.20L37.24 8.20Q37.24 8.58 37.21 9.39L37.21 9.39L37.21 9.39Q37.16 11.30 36.09 12.26L36.09 12.26L36.09 12.26Q35.01 13.23 33.11 13.23L33.11 13.23ZM33.11 11.61L33.11 11.61Q34.05 11.61 34.59 11.05L34.59 11.05L34.59 11.05Q35.14 10.49 35.18 9.32L35.18 9.32L35.18 9.32Q35.21 8.48 35.21 8.19L35.21 8.19L35.21 8.19Q35.21 7.87 35.18 7.06L35.18 7.06L35.18 7.06Q35.14 5.91 34.58 5.34L34.58 5.34L34.58 5.34Q34.02 4.77 33.11 4.77L33.11 4.77L33.11 4.77Q32.19 4.77 31.63 5.34L31.63 5.34L31.63 5.34Q31.07 5.91 31.04 7.06L31.04 7.06L31.04 7.06Q31.02 7.46 31.02 8.19L31.02 8.19L31.02 8.19Q31.02 8.90 31.04 9.32L31.04 9.32L31.04 9.32Q31.07 10.47 31.62 11.04L31.62 11.04L31.62 11.04Q32.17 11.61 33.11 11.61L33.11 11.61ZM39.40 13.09L39.40 13.09Q39.26 13.09 39.16 12.99L39.16 12.99L39.16 12.99Q39.06 12.89 39.06 12.75L39.06 12.75L39.06 3.64L39.06 3.64Q39.06 3.49 39.15 3.39L39.15 3.39L39.15 3.39Q39.24 3.29 39.40 3.29L39.40 3.29L40.53 3.29L40.53 3.29Q40.80 3.29 40.95 3.56L40.95 3.56L43.65 8.57L46.35 3.56L46.35 3.56Q46.51 3.29 46.77 3.29L46.77 3.29L47.89 3.29L47.89 3.29Q48.05 3.29 48.15 3.39L48.15 3.39L48.15 3.39Q48.24 3.49 48.24 3.64L48.24 3.64L48.24 12.75L48.24 12.75Q48.24 12.91 48.15 13.00L48.15 13.00L48.15 13.00Q48.05 13.09 47.89 13.09L47.89 13.09L46.69 13.09L46.69 13.09Q46.55 13.09 46.45 12.99L46.45 12.99L46.45 12.99Q46.35 12.89 46.35 12.75L46.35 12.75L46.35 6.73L44.41 10.43L44.41 10.43Q44.25 10.74 43.95 10.74L43.95 10.74L43.36 10.74L43.36 10.74Q43.06 10.74 42.88 10.43L42.88 10.43L40.94 6.73L40.94 12.75L40.94 12.75Q40.94 12.89 40.85 12.99L40.85 12.99L40.85 12.99Q40.75 13.09 40.60 13.09L40.60 13.09L39.40 13.09Z"></path></g><!----><!----></svg>