<?xml version="1.0" encoding="UTF-8" standalone="no"?>
<!-- Created with Inkscape (http://www.inkscape.org/) -->

<svg
   width="90mm"
   height="90mm"
   viewBox="0 0 90 90"
   version="1.1"
   id="svg406"
   inkscape:version="1.2.2 (732a01da63, 2022-12-09, custom)"
   sodipodi:docname="default-icon.svg"
   xmlns:inkscape="http://www.inkscape.org/namespaces/inkscape"
   xmlns:sodipodi="http://sodipodi.sourceforge.net/DTD/sodipodi-0.dtd"
   xmlns="http://www.w3.org/2000/svg"
   xmlns:svg="http://www.w3.org/2000/svg">
  <sodipodi:namedview
     id="namedview408"
     pagecolor="#ffffff"
     bordercolor="#999999"
     borderopacity="1"
     inkscape:showpageshadow="0"
     inkscape:pageopacity="0"
     inkscape:pagecheckerboard="0"
     inkscape:deskcolor="#d1d1d1"
     inkscape:document-units="mm"
     showgrid="false"
     inkscape:zoom="1.6776466"
     inkscape:cx="202.06878"
     inkscape:cy="163.62206"
     inkscape:window-width="1920"
     inkscape:window-height="1016"
     inkscape:window-x="0"
     inkscape:window-y="27"
     inkscape:window-maximized="1"
     inkscape:current-layer="layer1" />
  <defs
     id="defs403" />
  <g
     inkscape:label="Ebene 1"
     inkscape:groupmode="layer"
     id="layer1">
    <g
       data-v-423bf9ae=""
       id="049f90c7-60e5-4bcd-aca2-60a5bee25633"
       transform="matrix(1.0229885,0,0,1.0229767,-5.6379308,-6.1493465)"
       stroke="none"
       fill="#00a3dd">
      <path
         d="M 86,43.75 C 82.475,43.75 79.565,46 79.079,50 H 60 c 0,-3 -0.62,-4.209 -1.681,-5.796 l 15.82,-15.945 c 0.576,0.231 1.201,0.304 1.86,0.304 2.762,0 5,-2.27 5,-5.031 0,-2.761 -2.238,-5.016 -5,-5.016 -2.762,0 -5,2.23 -5,4.992 0,1.289 0.501,2.448 1.302,3.335 L 56.883,42.26 A 9.957,9.957 0 0 0 51,39.551 V 20.42 c 3.391,-0.486 6,-3.394 6,-6.92 a 7,7 0 1 0 -14,0 c 0,3.526 2.609,6.434 6,6.92 v 19.13 a 9.948,9.948 0 0 0 -5.592,2.443 L 28.489,27.075 A 4.98,4.98 0 0 0 30,23.5 c 0,-2.762 -2.238,-5 -5,-5 -2.762,0 -5,2.238 -5,5 a 5,5 0 0 0 5,5 c 0.619,0 1.206,-0.127 1.753,-0.333 L 42.045,43.709 C 40.767,45.388 40,47 40,50 H 19.92 C 19.434,46 16.525,43.75 13,43.75 c -3.866,0 -7,3.009 -7,6.875 0,3.867 3.134,7.188 7,7.188 3.526,0 6.434,-2.813 6.92,-5.813 H 40.2 c 0.38,1 1.29,3.3 2.557,4.633 L 28.338,70.927 C 27.452,70.126 26.289,69.563 25,69.563 c -2.762,0 -5,2.207 -5,4.969 0,2.762 2.238,4.984 5,4.984 2.762,0 5,-2.246 5,-5.008 0,-0.659 -0.135,-1.289 -0.366,-1.864 L 44.454,57.822 A 9.934,9.934 0 0 0 49,59.45 v 20.13 c -3.391,0.486 -6,3.396 -6,6.921 0,3.867 3.134,7 7,7 3.866,0 7,-3.133 7,-7 0,-3.525 -2.609,-6.435 -6,-6.921 V 59.45 a 9.94,9.94 0 0 0 5.042,-1.994 L 71.333,72.747 A 4.957,4.957 0 0 0 71,74.5 c 0,2.762 2.238,5 5,5 2.762,0 5,-2.238 5,-5 0,-2.762 -2.238,-5 -5,-5 a 4.98,4.98 0 0 0 -3.574,1.511 L 57.507,56.342 C 58.635,55.059 59.446,53 59.799,52 h 19.28 c 0.486,3 3.396,5.75 6.921,5.75 a 7,7 0 1 0 0,-14 z"
         id="path37" />
    </g>
  </g>
</svg>
